<?xml version="1.0" encoding="UTF-8" standalone="no"?><svg xmlns="http://www.w3.org/2000/svg" xmlns:xlink="http://www.w3.org/1999/xlink" contentStyleType="text/css" height="1018px" preserveAspectRatio="none" style="width:1753px;height:1018px;background:#FFFFFF;" version="1.1" viewBox="0 0 1753 1018" width="1753px" zoomAndPan="magnify"><defs/><g><rect fill="#ADD8E6" height="1006.6719" style="stroke:#181818;stroke-width:0.5;" width="1118" x="106" y="6"/><text fill="#000000" font-family="sans-serif" font-size="13" font-weight="bold" lengthAdjust="spacing" textLength="153" x="588.5" y="18.5684">CAPA Internal Services</text><rect fill="#90EE90" height="1006.6719" style="stroke:#181818;stroke-width:0.5;" width="48" x="1391.5" y="6"/><text fill="#000000" font-family="sans-serif" font-size="13" font-weight="bold" lengthAdjust="spacing" textLength="29" x="1401" y="18.5684">AWS</text><rect height="681.1426" style="stroke:#000000;stroke-width:1.5;fill:none;" width="1528.5" x="218" y="163.4199"/><line style="stroke:#181818;stroke-width:0.5;fill:none;stroke-dasharray:5.0,5.0;" x1="23" x2="23" y1="87.7988" y2="933.1836"/><line style="stroke:#181818;stroke-width:0.5;fill:none;stroke-dasharray:5.0,5.0;" x1="145" x2="145" y1="87.7988" y2="933.1836"/><line style="stroke:#181818;stroke-width:0.5;fill:none;stroke-dasharray:5.0,5.0;" x1="306" x2="306" y1="87.7988" y2="933.1836"/><line style="stroke:#181818;stroke-width:0.5;fill:none;stroke-dasharray:5.0,5.0;" x1="583.5" x2="583.5" y1="87.7988" y2="933.1836"/><line style="stroke:#181818;stroke-width:0.5;fill:none;stroke-dasharray:5.0,5.0;" x1="764.5" x2="764.5" y1="87.7988" y2="933.1836"/><line style="stroke:#181818;stroke-width:0.5;fill:none;stroke-dasharray:5.0,5.0;" x1="1174" x2="1174" y1="87.7988" y2="933.1836"/><line style="stroke:#181818;stroke-width:0.5;fill:none;stroke-dasharray:5.0,5.0;" x1="1415.5" x2="1415.5" y1="87.7988" y2="933.1836"/><text fill="#000000" font-family="sans-serif" font-size="14" lengthAdjust="spacing" textLength="31" x="5" y="84.8457">User</text><ellipse cx="23.5" cy="19.8105" fill="#FFA500" rx="8" ry="8" style="stroke:#181818;stroke-width:0.5;"/><path d="M23.5,27.8105 L23.5,54.8105 M10.5,35.8105 L36.5,35.8105 M23.5,54.8105 L10.5,69.8105 M23.5,54.8105 L36.5,69.8105 " fill="none" style="stroke:#181818;stroke-width:0.5;"/><text fill="#000000" font-family="sans-serif" font-size="14" lengthAdjust="spacing" textLength="31" x="5" y="945.7188">User</text><ellipse cx="23.5" cy="957.1719" fill="#FFA500" rx="8" ry="8" style="stroke:#181818;stroke-width:0.5;"/><path d="M23.5,965.1719 L23.5,992.1719 M10.5,973.1719 L36.5,973.1719 M23.5,992.1719 L10.5,1007.1719 M23.5,992.1719 L36.5,1007.1719 " fill="none" style="stroke:#181818;stroke-width:0.5;"/><text fill="#000000" font-family="sans-serif" font-size="14" lengthAdjust="spacing" textLength="65" x="110" y="84.8457">APIServer</text><path d="M127.5,35.3105 C127.5,25.3105 145.5,25.3105 145.5,25.3105 C145.5,25.3105 163.5,25.3105 163.5,35.3105 L163.5,61.3105 C163.5,71.3105 145.5,71.3105 145.5,71.3105 C145.5,71.3105 127.5,71.3105 127.5,61.3105 L127.5,35.3105 " fill="#E2E2F0" style="stroke:#181818;stroke-width:1.5;"/><path d="M127.5,35.3105 C127.5,45.3105 145.5,45.3105 145.5,45.3105 C145.5,45.3105 163.5,45.3105 163.5,35.3105 " fill="none" style="stroke:#181818;stroke-width:1.5;"/><text fill="#000000" font-family="sans-serif" font-size="14" lengthAdjust="spacing" textLength="65" x="110" y="945.7188">APIServer</text><path d="M127.5,958.6719 C127.5,948.6719 145.5,948.6719 145.5,948.6719 C145.5,948.6719 163.5,948.6719 163.5,958.6719 L163.5,984.6719 C163.5,994.6719 145.5,994.6719 145.5,994.6719 C145.5,994.6719 127.5,994.6719 127.5,984.6719 L127.5,958.6719 " fill="#E2E2F0" style="stroke:#181818;stroke-width:1.5;"/><path d="M127.5,958.6719 C127.5,968.6719 145.5,968.6719 145.5,968.6719 C145.5,968.6719 163.5,968.6719 163.5,958.6719 " fill="none" style="stroke:#181818;stroke-width:1.5;"/><text fill="#000000" font-family="sans-serif" font-size="14" lengthAdjust="spacing" textLength="151" x="228" y="84.8457">InfraClusterController</text><ellipse cx="306.5" cy="55.3105" fill="#E2E2F0" rx="12" ry="12" style="stroke:#181818;stroke-width:0.5;"/><polygon fill="#181818" points="302.5,43.3105,308.5,38.3105,306.5,43.3105,308.5,48.3105,302.5,43.3105" style="stroke:#181818;stroke-width:1.0;"/><text fill="#000000" font-family="sans-serif" font-size="14" lengthAdjust="spacing" textLength="151" x="228" y="945.7188">InfraClusterController</text><ellipse cx="306.5" cy="964.6719" fill="#E2E2F0" rx="12" ry="12" style="stroke:#181818;stroke-width:0.5;"/><polygon fill="#181818" points="302.5,952.6719,308.5,947.6719,306.5,952.6719,308.5,957.6719,302.5,952.6719" style="stroke:#181818;stroke-width:1.0;"/><rect fill="#E2E2F0" height="30.4883" rx="2.5" ry="2.5" style="stroke:#181818;stroke-width:0.5;" width="124" x="521.5" y="56.3105"/><text fill="#000000" font-family="sans-serif" font-size="14" lengthAdjust="spacing" textLength="110" x="528.5" y="76.8457">network_service</text><rect fill="#E2E2F0" height="30.4883" rx="2.5" ry="2.5" style="stroke:#181818;stroke-width:0.5;" width="124" x="521.5" y="932.1836"/><text fill="#000000" font-family="sans-serif" font-size="14" lengthAdjust="spacing" textLength="110" x="528.5" y="952.7188">network_service</text><rect fill="#E2E2F0" height="30.4883" rx="2.5" ry="2.5" style="stroke:#181818;stroke-width:0.5;" width="136" x="696.5" y="56.3105"/><text fill="#000000" font-family="sans-serif" font-size="14" lengthAdjust="spacing" textLength="122" x="703.5" y="76.8457">aws_node_service</text><rect fill="#E2E2F0" height="30.4883" rx="2.5" ry="2.5" style="stroke:#181818;stroke-width:0.5;" width="136" x="696.5" y="932.1836"/><text fill="#000000" font-family="sans-serif" font-size="14" lengthAdjust="spacing" textLength="122" x="703.5" y="952.7188">aws_node_service</text><rect fill="#E2E2F0" height="30.4883" rx="2.5" ry="2.5" style="stroke:#181818;stroke-width:0.5;" width="91" x="1129" y="56.3105"/><text fill="#000000" font-family="sans-serif" font-size="14" lengthAdjust="spacing" textLength="77" x="1136" y="76.8457">eks_service</text><rect fill="#E2E2F0" height="30.4883" rx="2.5" ry="2.5" style="stroke:#181818;stroke-width:0.5;" width="91" x="1129" y="932.1836"/><text fill="#000000" font-family="sans-serif" font-size="14" lengthAdjust="spacing" textLength="77" x="1136" y="952.7188">eks_service</text><rect fill="#E2E2F0" height="30.4883" rx="2.5" ry="2.5" style="stroke:#181818;stroke-width:0.5;" width="40" x="1395.5" y="56.3105"/><text fill="#000000" font-family="sans-serif" font-size="14" lengthAdjust="spacing" textLength="26" x="1402.5" y="76.8457">aws</text><rect fill="#E2E2F0" height="30.4883" rx="2.5" ry="2.5" style="stroke:#181818;stroke-width:0.5;" width="40" x="1395.5" y="932.1836"/><text fill="#000000" font-family="sans-serif" font-size="14" lengthAdjust="spacing" textLength="26" x="1402.5" y="952.7188">aws</text><polygon fill="#181818" points="133.5,115.1094,143.5,119.1094,133.5,123.1094,137.5,119.1094" style="stroke:#181818;stroke-width:1.0;"/><line style="stroke:#181818;stroke-width:1.0;" x1="23.5" x2="139.5" y1="119.1094" y2="119.1094"/><text fill="#000000" font-family="sans-serif" font-size="13" lengthAdjust="spacing" textLength="98" x="30.5" y="114.3672">apply capi yaml</text><polygon fill="#181818" points="156.5,144.4199,146.5,148.4199,156.5,152.4199,152.5,148.4199" style="stroke:#181818;stroke-width:1.0;"/><line style="stroke:#181818;stroke-width:1.0;" x1="150.5" x2="305.5" y1="148.4199" y2="148.4199"/><text fill="#000000" font-family="sans-serif" font-size="13" lengthAdjust="spacing" textLength="137" x="162.5" y="143.6777">watch (create/update)</text><path d="M218,163.4199 L285,163.4199 L285,170.7305 L275,180.7305 L218,180.7305 L218,163.4199 " fill="#EEEEEE" style="stroke:#000000;stroke-width:1.5;"/><rect fill="none" height="681.1426" style="stroke:#000000;stroke-width:1.5;" width="1528.5" x="218" y="163.4199"/><text fill="#000000" font-family="sans-serif" font-size="13" font-weight="bold" lengthAdjust="spacing" textLength="22" x="233" y="176.9883">opt</text><text fill="#000000" font-family="sans-serif" font-size="11" font-weight="bold" lengthAdjust="spacing" textLength="153" x="300" y="176.0547">[if ipv6 network requested]</text><polygon fill="#181818" points="571.5,198.041,581.5,202.041,571.5,206.041,575.5,202.041" style="stroke:#181818;stroke-width:1.0;"/><line style="stroke:#181818;stroke-width:1.0;" x1="306.5" x2="577.5" y1="202.041" y2="202.041"/><text fill="#000000" font-family="sans-serif" font-size="13" lengthAdjust="spacing" textLength="253" x="313.5" y="197.2988">Create a VPC with IPFamily set to `ipv6`</text><polygon fill="#181818" points="1403.5,227.3516,1413.5,231.3516,1403.5,235.3516,1407.5,231.3516" style="stroke:#181818;stroke-width:1.0;"/><line style="stroke:#181818;stroke-width:1.0;" x1="583.5" x2="1409.5" y1="231.3516" y2="231.3516"/><text fill="#000000" font-family="sans-serif" font-size="13" lengthAdjust="spacing" textLength="253" x="590.5" y="226.6094">Create a VPC with IPFamily set to `ipv6`</text><line style="stroke:#181818;stroke-width:1.0;" x1="1415.5" x2="1457.5" y1="260.6621" y2="260.6621"/><line style="stroke:#181818;stroke-width:1.0;" x1="1457.5" x2="1457.5" y1="260.6621" y2="273.6621"/><line style="stroke:#181818;stroke-width:1.0;" x1="1416.5" x2="1457.5" y1="273.6621" y2="273.6621"/><polygon fill="#181818" points="1426.5,269.6621,1416.5,273.6621,1426.5,277.6621,1422.5,273.6621" style="stroke:#181818;stroke-width:1.0;"/><text fill="#000000" font-family="sans-serif" font-size="13" lengthAdjust="spacing" textLength="312" x="1422.5" y="255.9199">Create IPv6 Pool and assign IPv6 CIDR to new VPC</text><polygon fill="#181818" points="594.5,317.2832,584.5,321.2832,594.5,325.2832,590.5,321.2832" style="stroke:#181818;stroke-width:1.0;"/><line style="stroke:#181818;stroke-width:1.0;" x1="588.5" x2="1414.5" y1="321.2832" y2="321.2832"/><text fill="#000000" font-family="sans-serif" font-size="13" lengthAdjust="spacing" textLength="90" x="600.5" y="316.541">return the VPC</text><path d="M1420,286.6621 L1420,341.6621 L1684,341.6621 L1684,296.6621 L1674,286.6621 L1420,286.6621 " fill="#FEFFDD" style="stroke:#181818;stroke-width:0.5;"/><path d="M1674,286.6621 L1674,296.6621 L1684,296.6621 L1674,286.6621 " fill="#FEFFDD" style="stroke:#181818;stroke-width:0.5;"/><text fill="#000000" font-family="sans-serif" font-size="13" lengthAdjust="spacing" textLength="243" x="1426" y="304.2305">"At this point, CIDR and Pool aren't yet</text><text fill="#000000" font-family="sans-serif" font-size="13" lengthAdjust="spacing" textLength="152" x="1430" y="319.541">set on the returned VPC.</text><text fill="#000000" font-family="sans-serif" font-size="13" lengthAdjust="spacing" textLength="205" x="1430" y="334.8516">We must Describe it to get that."</text><polygon fill="#181818" points="1403.5,364.9043,1413.5,368.9043,1403.5,372.9043,1407.5,368.9043" style="stroke:#181818;stroke-width:1.0;"/><line style="stroke:#181818;stroke-width:1.0;" x1="583.5" x2="1409.5" y1="368.9043" y2="368.9043"/><text fill="#000000" font-family="sans-serif" font-size="13" lengthAdjust="spacing" textLength="283" x="590.5" y="364.1621">`DescribeVpcs` to get IPv6 CIDR and Pool ID</text><polygon fill="#181818" points="594.5,394.2148,584.5,398.2148,594.5,402.2148,590.5,398.2148" style="stroke:#181818;stroke-width:1.0;"/><line style="stroke:#181818;stroke-width:1.0;" x1="588.5" x2="1414.5" y1="398.2148" y2="398.2148"/><text fill="#000000" font-family="sans-serif" font-size="13" lengthAdjust="spacing" textLength="273" x="600.5" y="393.4727">return VPC with IPv6 CIDR and Pool now set</text><line style="stroke:#181818;stroke-width:1.0;" x1="583.5" x2="625.5" y1="427.5254" y2="427.5254"/><line style="stroke:#181818;stroke-width:1.0;" x1="625.5" x2="625.5" y1="427.5254" y2="440.5254"/><line style="stroke:#181818;stroke-width:1.0;" x1="584.5" x2="625.5" y1="440.5254" y2="440.5254"/><polygon fill="#181818" points="594.5,436.5254,584.5,440.5254,594.5,444.5254,590.5,440.5254" style="stroke:#181818;stroke-width:1.0;"/><text fill="#000000" font-family="sans-serif" font-size="13" lengthAdjust="spacing" textLength="167" x="590.5" y="422.7832">update internal VPC config</text><polygon fill="#181818" points="317.5,465.8359,307.5,469.8359,317.5,473.8359,313.5,469.8359" style="stroke:#181818;stroke-width:1.0;"/><line style="stroke:#181818;stroke-width:1.0;" x1="311.5" x2="582.5" y1="469.8359" y2="469.8359"/><text fill="#000000" font-family="sans-serif" font-size="13" lengthAdjust="spacing" textLength="175" x="323.5" y="465.0938">VPC successfully reconciled</text><polygon fill="#181818" points="752.5,495.1465,762.5,499.1465,752.5,503.1465,756.5,499.1465" style="stroke:#181818;stroke-width:1.0;"/><line style="stroke:#181818;stroke-width:1.0;" x1="306.5" x2="758.5" y1="499.1465" y2="499.1465"/><text fill="#000000" font-family="sans-serif" font-size="13" lengthAdjust="spacing" textLength="314" x="313.5" y="494.4043">patch aws-node with IPv6 environment properties</text><polygon fill="#181818" points="571.5,524.457,581.5,528.457,571.5,532.457,575.5,528.457" style="stroke:#181818;stroke-width:1.0;"/><line style="stroke:#181818;stroke-width:1.0;" x1="306.5" x2="577.5" y1="528.457" y2="528.457"/><text fill="#000000" font-family="sans-serif" font-size="13" lengthAdjust="spacing" textLength="232" x="313.5" y="523.7148">reconcile EgressOnlyInternetGateway</text><line style="stroke:#181818;stroke-width:1.0;" x1="764.5" x2="806.5" y1="557.7676" y2="557.7676"/><line style="stroke:#181818;stroke-width:1.0;" x1="806.5" x2="806.5" y1="557.7676" y2="570.7676"/><line style="stroke:#181818;stroke-width:1.0;" x1="765.5" x2="806.5" y1="570.7676" y2="570.7676"/><polygon fill="#181818" points="775.5,566.7676,765.5,570.7676,775.5,574.7676,771.5,570.7676" style="stroke:#181818;stroke-width:1.0;"/><text fill="#000000" font-family="sans-serif" font-size="13" lengthAdjust="spacing" textLength="396" x="771.5" y="553.0254">update aws-node DaemonSet with new environment properties</text><polygon fill="#181818" points="1162.5,596.0781,1172.5,600.0781,1162.5,604.0781,1166.5,600.0781" style="stroke:#181818;stroke-width:1.0;"/><line style="stroke:#181818;stroke-width:1.0;" x1="306.5" x2="1168.5" y1="600.0781" y2="600.0781"/><text fill="#000000" font-family="sans-serif" font-size="13" lengthAdjust="spacing" textLength="202" x="313.5" y="595.3359">set up IPv6 bootstrap properties</text><polygon fill="#181818" points="1162.5,625.3887,1172.5,629.3887,1162.5,633.3887,1166.5,629.3887" style="stroke:#181818;stroke-width:1.0;"/><line style="stroke:#181818;stroke-width:1.0;" x1="306.5" x2="1168.5" y1="629.3887" y2="629.3887"/><text fill="#000000" font-family="sans-serif" font-size="13" lengthAdjust="spacing" textLength="217" x="313.5" y="624.6465">create cluster and provision nodes</text><polygon fill="#181818" points="1403.5,654.6992,1413.5,658.6992,1403.5,662.6992,1407.5,658.6992" style="stroke:#181818;stroke-width:1.0;"/><line style="stroke:#181818;stroke-width:1.0;" x1="1174.5" x2="1409.5" y1="658.6992" y2="658.6992"/><text fill="#000000" font-family="sans-serif" font-size="13" lengthAdjust="spacing" textLength="217" x="1181.5" y="653.957">create cluster and provision nodes</text><polygon fill="#181818" points="1185.5,684.0098,1175.5,688.0098,1185.5,692.0098,1181.5,688.0098" style="stroke:#181818;stroke-width:1.0;"/><line style="stroke:#181818;stroke-width:1.0;" x1="1179.5" x2="1414.5" y1="688.0098" y2="688.0098"/><text fill="#000000" font-family="sans-serif" font-size="13" lengthAdjust="spacing" textLength="16" x="1191.5" y="683.2676">ok</text><polygon fill="#181818" points="317.5,713.3203,307.5,717.3203,317.5,721.3203,313.5,717.3203" style="stroke:#181818;stroke-width:1.0;"/><line style="stroke:#181818;stroke-width:1.0;" x1="311.5" x2="1173.5" y1="717.3203" y2="717.3203"/><text fill="#000000" font-family="sans-serif" font-size="13" lengthAdjust="spacing" textLength="16" x="323.5" y="712.5781">ok</text><line style="stroke:#000000;stroke-width:1.0;stroke-dasharray:2.0,2.0;" x1="218" x2="1746.5" y1="726.3203" y2="726.3203"/><polygon fill="#181818" points="571.5,744.6309,581.5,748.6309,571.5,752.6309,575.5,748.6309" style="stroke:#181818;stroke-width:1.0;"/><line style="stroke:#181818;stroke-width:1.0;" x1="306.5" x2="577.5" y1="748.6309" y2="748.6309"/><text fill="#000000" font-family="sans-serif" font-size="13" lengthAdjust="spacing" textLength="122" x="313.5" y="743.8887">normal cluster flow</text><polygon fill="#181818" points="1403.5,773.9414,1413.5,777.9414,1403.5,781.9414,1407.5,777.9414" style="stroke:#181818;stroke-width:1.0;"/><line style="stroke:#181818;stroke-width:1.0;" x1="583.5" x2="1409.5" y1="777.9414" y2="777.9414"/><text fill="#000000" font-family="sans-serif" font-size="13" lengthAdjust="spacing" textLength="122" x="590.5" y="773.1992">normal cluster flow</text><polygon fill="#181818" points="594.5,803.252,584.5,807.252,594.5,811.252,590.5,807.252" style="stroke:#181818;stroke-width:1.0;"/><line style="stroke:#181818;stroke-width:1.0;" x1="588.5" x2="1414.5" y1="807.252" y2="807.252"/><text fill="#000000" font-family="sans-serif" font-size="13" lengthAdjust="spacing" textLength="16" x="600.5" y="802.5098">ok</text><polygon fill="#181818" points="317.5,832.5625,307.5,836.5625,317.5,840.5625,313.5,836.5625" style="stroke:#181818;stroke-width:1.0;"/><line style="stroke:#181818;stroke-width:1.0;" x1="311.5" x2="582.5" y1="836.5625" y2="836.5625"/><text fill="#000000" font-family="sans-serif" font-size="13" lengthAdjust="spacing" textLength="16" x="323.5" y="831.8203">ok</text><line style="stroke:#181818;stroke-width:1.0;" x1="306.5" x2="348.5" y1="872.873" y2="872.873"/><line style="stroke:#181818;stroke-width:1.0;" x1="348.5" x2="348.5" y1="872.873" y2="885.873"/><line style="stroke:#181818;stroke-width:1.0;" x1="307.5" x2="348.5" y1="885.873" y2="885.873"/><polygon fill="#181818" points="317.5,881.873,307.5,885.873,317.5,889.873,313.5,885.873" style="stroke:#181818;stroke-width:1.0;"/><text fill="#000000" font-family="sans-serif" font-size="13" lengthAdjust="spacing" textLength="86" x="313.5" y="868.1309">update status</text><polygon fill="#181818" points="156.5,911.1836,146.5,915.1836,156.5,919.1836,152.5,915.1836" style="stroke:#181818;stroke-width:1.0;"/><line style="stroke:#181818;stroke-width:1.0;" x1="150.5" x2="305.5" y1="915.1836" y2="915.1836"/><text fill="#000000" font-family="sans-serif" font-size="13" lengthAdjust="spacing" textLength="35" x="162.5" y="910.4414">patch</text><!--MD5=[f76b015c3bb5a76bc308e9743c57fb72]
@startuml "IPv6 Sequence Diagram"
actor User #orange
box "CAPA Internal Services" #LightBlue
database APIServer
control InfraClusterController
participant network_service
participant aws_node_service
participant eks_service
end box
box "AWS" #LightGreen
participant aws
end box

User -> APIServer: apply capi yaml
InfraClusterController -> APIServer: watch (create/update)
opt if ipv6 network requested
    InfraClusterController -> network_service: Create a VPC with IPFamily set to `ipv6`
    network_service -> aws: Create a VPC with IPFamily set to `ipv6`
    aws -> aws: Create IPv6 Pool and assign IPv6 CIDR to new VPC
    aws -> network_service: return the VPC
    note right: "At this point, CIDR and Pool aren't yet\n set on the returned VPC.\n We must Describe it to get that."
    network_service -> aws: `DescribeVpcs` to get IPv6 CIDR and Pool ID
    aws->network_service: return VPC with IPv6 CIDR and Pool now set
    network_service -> network_service: update internal VPC config
    network_service -> InfraClusterController: VPC successfully reconciled
    InfraClusterController -> aws_node_service: patch aws-node with IPv6 environment properties
    InfraClusterController -> network_service: reconcile EgressOnlyInternetGateway
    aws_node_service -> aws_node_service: update aws-node DaemonSet with new environment properties
    InfraClusterController -> eks_service: set up IPv6 bootstrap properties
    InfraClusterController -> eks_service: create cluster and provision nodes
    eks_service -> aws: create cluster and provision nodes
    aws -> eks_service: ok
    eks_service -> InfraClusterController: ok
else
    InfraClusterController -> network_service: normal cluster flow
    network_service -> aws: normal cluster flow
    aws -> network_service: ok
    network_service -> InfraClusterController: ok
end
InfraClusterController -> InfraClusterController: update status
InfraClusterController -> APIServer: patch
deactivate InfraClusterController
@enduml

PlantUML version 1.2022.6(Tue Jun 21 19:34:49 CEST 2022)
(GPL source distribution)
Java Runtime: OpenJDK Runtime Environment
JVM: OpenJDK 64-Bit Server VM
Default Encoding: UTF-8
Language: en
Country: HU
--></g></svg>